<?xml version="1.0" encoding="UTF-8" standalone="no"?>
<!DOCTYPE svg PUBLIC "-//W3C//DTD SVG 1.1//EN" "http://www.w3.org/Graphics/SVG/1.1/DTD/svg11.dtd">
<!-- Generated by Microsoft Visio, SVG Export proxy-diagram.svg Page-1 -->
<svg xmlns="http://www.w3.org/2000/svg" xmlns:xlink="http://www.w3.org/1999/xlink" xmlns:ev="http://www.w3.org/2001/xml-events"
		xmlns:v="http://schemas.microsoft.com/visio/2003/SVGExtensions/" width="11in" height="8.5in" viewBox="0 0 792 612"
		xml:space="preserve" color-interpolation-filters="sRGB" class="st12">
	<v:documentProperties v:langID="1033" v:viewMarkup="false">
		<v:userDefs>
			<v:ud v:nameU="msvSubprocessMaster" v:prompt="" v:val="VT4(Rectangle)"/>
			<v:ud v:nameU="msvNoAutoConnect" v:val="VT0(1):26"/>
		</v:userDefs>
	</v:documentProperties>

	<style type="text/css">
	<![CDATA[
		.st1 {visibility:visible}
		.st2 {fill:#5b9bd5;fill-opacity:0.22;filter:url(#filter_2);stroke:#5b9bd5;stroke-opacity:0.22}
		.st3 {fill:#5b9bd5;stroke:#c7c8c8;stroke-width:0.25}
		.st4 {fill:#feffff;font-family:Calibri;font-size:1.00001em}
		.st5 {font-size:1em}
		.st6 {fill:#00b0f0;stroke:#c7c8c8;stroke-width:0.25}
		.st7 {fill:#cbffff;stroke:#c7c8c8;stroke-width:0.25}
		.st8 {fill:#000000;font-family:Calibri;font-size:1.00001em}
		.st9 {marker-end:url(#mrkr4-58);stroke:#5b9bd5;stroke-linecap:round;stroke-linejoin:round;stroke-width:1}
		.st10 {fill:#5b9bd5;fill-opacity:1;stroke:#5b9bd5;stroke-opacity:1;stroke-width:0.28409090909091}
		.st11 {fill:#ffffff;stroke:none;stroke-linecap:butt;stroke-width:7.2}
		.st12 {fill:none;fill-rule:evenodd;font-size:12px;overflow:visible;stroke-linecap:square;stroke-miterlimit:3}
	]]>
	</style>

	<defs id="Markers">
		<g id="lend4">
			<path d="M 2 1 L 0 0 L 2 -1 L 2 1 " style="stroke:none"/>
		</g>
		<marker id="mrkr4-58" class="st10" v:arrowType="4" v:arrowSize="2" v:setback="7.04" refX="-7.04" orient="auto"
				markerUnits="strokeWidth" overflow="visible">
			<use xlink:href="#lend4" transform="scale(-3.52,-3.52) "/>
		</marker>
	</defs>
	<defs id="Filters">
		<filter id="filter_2">
			<feGaussianBlur stdDeviation="2"/>
		</filter>
	</defs>
	<g v:mID="0" v:index="1" v:groupContext="foregroundPage">
		<v:userDefs>
			<v:ud v:nameU="msvThemeOrder" v:val="VT0(0):26"/>
		</v:userDefs>
		<title>Page-1</title>
		<v:pageProperties v:drawingScale="1" v:pageScale="1" v:drawingUnits="0" v:shadowOffsetX="9" v:shadowOffsetY="-9"/>
		<v:layer v:name="Connector" v:index="0"/>
		<g id="group1-1" transform="translate(513,-279)" v:mID="1" v:groupContext="group">
			<v:userDefs>
				<v:ud v:nameU="visVersion" v:prompt="" v:val="VT0(15):26"/>
			</v:userDefs>
			<title>Can</title>
			<desc>PostgreSQL Master</desc>
			<g id="shape2-2" v:mID="2" v:groupContext="shape">
				<title>Sheet.2</title>
				<v:userDefs>
					<v:ud v:nameU="ControlHalfHeight" v:prompt="" v:val="VT0(0.125):1"/>
					<v:ud v:nameU="FillForegnd" v:prompt="" v:val="VT0(1):26"/>
					<v:ud v:nameU="FillForegnd" v:prompt="" v:val="VT5(#5b9bd5)"/>
				</v:userDefs>
				<g id="shadow2-3" v:groupContext="shadow" v:shadowOffsetX="0.345598" v:shadowOffsetY="-1.97279" v:shadowType="1"
						transform="matrix(1,0,0,1,0.345598,1.97279)" class="st1">
					<path d="M0 603 A36 9 -180 1 0 72 603 L72 531 L0 531 L0 603 Z" class="st2"/>
				</g>
				<path d="M0 603 A36 9 -180 1 0 72 603 L72 531 L0 531 L0 603 Z" class="st3"/>
			</g>
			<g id="shape1-7" v:mID="1" v:groupContext="groupContent">
				<v:textBlock v:margins="rect(4,4,4,4)"/>
				<v:textRect cx="36" cy="567" width="72" height="90"/>
				<g id="shadow1-8" v:groupContext="shadow" v:shadowOffsetX="0.345598" v:shadowOffsetY="-1.97279" v:shadowType="1"
						transform="matrix(1,0,0,1,0.345598,1.97279)" class="st1">
					<ellipse cx="36" cy="531" rx="36" ry="9" class="st2"/>
				</g>
				<ellipse cx="36" cy="531" rx="36" ry="9" class="st3"/>
				<text x="8.16" y="563.4" class="st4" v:langID="1033"><v:paragraph v:horizAlign="1"/><v:tabList/>PostgreSQL<v:newlineChar/><tspan
							x="18.56" dy="1.2em" class="st5">Master</tspan></text>			</g>
		</g>
		<g id="group3-14" transform="translate(603,-396)" v:mID="3" v:groupContext="group">
			<v:userDefs>
				<v:ud v:nameU="visVersion" v:prompt="" v:val="VT0(15):26"/>
			</v:userDefs>
			<title>Can.3</title>
			<desc>PostgreSQL Replica</desc>
			<g id="shape4-15" v:mID="4" v:groupContext="shape">
				<title>Sheet.4</title>
				<v:userDefs>
					<v:ud v:nameU="ControlHalfHeight" v:prompt="" v:val="VT0(0.125):1"/>
					<v:ud v:nameU="FillForegnd" v:prompt="" v:val="VT0(1):26"/>
					<v:ud v:nameU="FillForegnd" v:prompt="" v:val="VT5(#5b9bd5)"/>
				</v:userDefs>
				<g id="shadow4-16" v:groupContext="shadow" v:shadowOffsetX="0.345598" v:shadowOffsetY="-1.97279" v:shadowType="1"
						transform="matrix(1,0,0,1,0.345598,1.97279)" class="st1">
					<path d="M0 603 A36 9 -180 1 0 72 603 L72 531 L0 531 L0 603 Z" class="st2"/>
				</g>
				<path d="M0 603 A36 9 -180 1 0 72 603 L72 531 L0 531 L0 603 Z" class="st3"/>
			</g>
			<g id="shape3-20" v:mID="3" v:groupContext="groupContent">
				<v:textBlock v:margins="rect(4,4,4,4)"/>
				<v:textRect cx="36" cy="567" width="72" height="90"/>
				<g id="shadow3-21" v:groupContext="shadow" v:shadowOffsetX="0.345598" v:shadowOffsetY="-1.97279" v:shadowType="1"
						transform="matrix(1,0,0,1,0.345598,1.97279)" class="st1">
					<ellipse cx="36" cy="531" rx="36" ry="9" class="st2"/>
				</g>
				<ellipse cx="36" cy="531" rx="36" ry="9" class="st3"/>
				<text x="8.16" y="563.4" class="st4" v:langID="1033"><v:paragraph v:horizAlign="1"/><v:tabList/>PostgreSQL<v:newlineChar/><tspan
							x="18.44" dy="1.2em" class="st5">Replica</tspan></text>			</g>
		</g>
		<g id="group5-27" transform="translate(603,-180)" v:mID="5" v:groupContext="group">
			<v:userDefs>
				<v:ud v:nameU="visVersion" v:prompt="" v:val="VT0(15):26"/>
			</v:userDefs>
			<title>Can.5</title>
			<desc>PostgreSQL Replica</desc>
			<g id="shape6-28" v:mID="6" v:groupContext="shape">
				<title>Sheet.6</title>
				<v:userDefs>
					<v:ud v:nameU="ControlHalfHeight" v:prompt="" v:val="VT0(0.125):1"/>
					<v:ud v:nameU="FillForegnd" v:prompt="" v:val="VT0(1):26"/>
					<v:ud v:nameU="FillForegnd" v:prompt="" v:val="VT5(#5b9bd5)"/>
				</v:userDefs>
				<g id="shadow6-29" v:groupContext="shadow" v:shadowOffsetX="0.345598" v:shadowOffsetY="-1.97279" v:shadowType="1"
						transform="matrix(1,0,0,1,0.345598,1.97279)" class="st1">
					<path d="M0 603 A36 9 -180 1 0 72 603 L72 531 L0 531 L0 603 Z" class="st2"/>
				</g>
				<path d="M0 603 A36 9 -180 1 0 72 603 L72 531 L0 531 L0 603 Z" class="st3"/>
			</g>
			<g id="shape5-33" v:mID="5" v:groupContext="groupContent">
				<v:textBlock v:margins="rect(4,4,4,4)"/>
				<v:textRect cx="36" cy="567" width="72" height="90"/>
				<g id="shadow5-34" v:groupContext="shadow" v:shadowOffsetX="0.345598" v:shadowOffsetY="-1.97279" v:shadowType="1"
						transform="matrix(1,0,0,1,0.345598,1.97279)" class="st1">
					<ellipse cx="36" cy="531" rx="36" ry="9" class="st2"/>
				</g>
				<ellipse cx="36" cy="531" rx="36" ry="9" class="st3"/>
				<text x="8.16" y="563.4" class="st4" v:langID="1033"><v:paragraph v:horizAlign="1"/><v:tabList/>PostgreSQL<v:newlineChar/><tspan
							x="18.44" dy="1.2em" class="st5">Replica</tspan></text>			</g>
		</g>
		<g id="shape7-40" v:mID="7" v:groupContext="shape" transform="translate(315,-297)">
			<title>Rectangle</title>
			<desc>Crunchy-proxy</desc>
			<v:userDefs>
				<v:ud v:nameU="visVersion" v:val="VT0(15):26"/>
			</v:userDefs>
			<v:textBlock v:margins="rect(4,4,4,4)"/>
			<v:textRect cx="54" cy="585" width="108" height="54"/>
			<g id="shadow7-41" v:groupContext="shadow" v:shadowOffsetX="0.345598" v:shadowOffsetY="-1.97279" v:shadowType="1"
					transform="matrix(1,0,0,1,0.345598,1.97279)" class="st1">
				<rect x="0" y="558" width="108" height="54" class="st2"/>
			</g>
			<rect x="0" y="558" width="108" height="54" class="st6"/>
			<text x="18.44" y="588.6" class="st4" v:langID="1033"><v:paragraph v:horizAlign="1"/><v:tabList/>Crunchy-proxy</text>		</g>
		<g id="shape8-46" v:mID="8" v:groupContext="shape" transform="translate(153,-279)">
			<title>Square</title>
			<desc>User Application</desc>
			<v:userDefs>
				<v:ud v:nameU="visVersion" v:val="VT0(15):26"/>
			</v:userDefs>
			<v:textBlock v:margins="rect(4,4,4,4)"/>
			<v:textRect cx="45" cy="567" width="90" height="90"/>
			<g id="shadow8-47" v:groupContext="shadow" v:shadowOffsetX="0.345598" v:shadowOffsetY="-1.97279" v:shadowType="1"
					transform="matrix(1,0,0,1,0.345598,1.97279)" class="st1">
				<rect x="0" y="522" width="90" height="90" class="st2"/>
			</g>
			<rect x="0" y="522" width="90" height="90" class="st7"/>
			<text x="33.73" y="563.4" class="st8" v:langID="1033"><v:paragraph v:horizAlign="1"/><v:tabList/>User<v:newlineChar/><tspan
						x="17.36" dy="1.2em" class="st5">Application</tspan></text>		</g>
		<g id="shape11-53" v:mID="11" v:groupContext="shape" v:layerMember="0" transform="translate(423,-315)">
			<title>Dynamic connector.11</title>
			<desc>writes</desc>
			<v:textBlock v:margins="rect(4,4,4,4)"/>
			<v:textRect cx="45" cy="603" width="60" height="22.4037"/>
			<path d="M0 603 L82.96 603" class="st9"/>
			<rect v:rectContext="textBkgnd" x="29.9002" y="595.8" width="30.1995" height="14.4001" class="st11"/>
			<text x="29.9" y="606.6" class="st8" v:langID="1033"><v:paragraph v:horizAlign="1"/><v:tabList/>writes</text>		</g>
		<g id="shape12-61" v:mID="12" v:groupContext="shape" v:layerMember="0" transform="translate(243,-315)">
			<title>Dynamic connector.12</title>
			<path d="M0 603 L64.96 603" class="st9"/>
		</g>
		<g id="shape13-66" v:mID="13" v:groupContext="shape" v:layerMember="0" transform="translate(369,-351)">
			<title>Dynamic connector.13</title>
			<desc>reads</desc>
			<v:textBlock v:margins="rect(4,4,4,4)"/>
			<v:textRect cx="72" cy="522" width="60" height="22.4037"/>
			<path d="M0 612 L0 522 L226.96 522" class="st9"/>
			<rect v:rectContext="textBkgnd" x="58.5498" y="514.8" width="26.9006" height="14.4001" class="st11"/>
			<text x="58.55" y="525.6" class="st8" v:langID="1033"><v:paragraph v:horizAlign="1"/><v:tabList/>reads</text>		</g>
		<g id="shape14-73" v:mID="14" v:groupContext="shape" v:layerMember="0" transform="translate(369,-297)">
			<title>Dynamic connector.14</title>
			<desc>reads</desc>
			<v:textBlock v:margins="rect(4,4,4,4)"/>
			<v:textRect cx="81" cy="684" width="60" height="22.4037"/>
			<path d="M0 612 L-0 684 L226.96 684" class="st9"/>
			<rect v:rectContext="textBkgnd" x="67.5498" y="676.8" width="26.9006" height="14.4001" class="st11"/>
			<text x="67.55" y="687.6" class="st8" v:langID="1033"><v:paragraph v:horizAlign="1"/><v:tabList/>reads</text>		</g>
		<g id="shape16-80" v:mID="16" v:groupContext="shape" v:layerMember="0" transform="translate(585,-324)">
			<title>Dynamic connector</title>
			<path d="M0 612 L54 612 L54 658.96" class="st9"/>
		</g>
		<g id="shape17-85" v:mID="17" v:groupContext="shape" v:layerMember="0" transform="translate(585,-324)">
			<title>Dynamic connector.17</title>
			<path d="M0 612 L54 612 L54 547.04" class="st9"/>
		</g>
	</g>
</svg>
